<svg version="1.1" xmlns="http://www.w3.org/2000/svg" viewBox="0 0 1279 449" width="1279" height="449">
  <!-- svg-source:excalidraw -->
  
  <defs>
    <style class="style-fonts">
      @font-face {
        font-family: "Virgil";
        src: url("https://excalidraw.com/Virgil.woff2");
      }
      @font-face {
        font-family: "Cascadia";
        src: url("https://excalidraw.com/Cascadia.woff2");
      }
    </style>
  </defs>
  <rect x="0" y="0" width="1279" height="449" fill="#f1f3f5"></rect><g stroke-linecap="round" transform="translate(10 39) rotate(0 114.5 147)"><path d="M32 0 M32 0 C93.35 0, 153.07 3.58, 197 0 M32 0 C91.8 2.36, 151.23 1.81, 197 0 M197 0 C219.32 0.35, 227.07 9.84, 229 32 M197 0 C218.91 -1.74, 227.14 9.08, 229 32 M229 32 C229.12 87.18, 227.47 140.02, 229 262 M229 32 C229.16 102.57, 228.24 174.54, 229 262 M229 262 C230.65 283.07, 218.35 293.86, 197 294 M229 262 C227.71 281.08, 217.73 293.79, 197 294 M197 294 C147.24 293.37, 95.08 290.44, 32 294 M197 294 C142.06 292.93, 86.94 293.58, 32 294 M32 294 C10.3 292.34, -0.86 282.54, 0 262 M32 294 C12.02 292.02, -2.04 283.54, 0 262 M0 262 C-0.38 188, -0.42 117.18, 0 32 M0 262 C0.67 193.61, 0.1 123.84, 0 32 M0 32 C0.03 11.38, 9.68 1.14, 32 0 M0 32 C-1.37 9.65, 9.8 0.24, 32 0" stroke="#000000" stroke-width="1" fill="none"></path></g><g transform="translate(64 59) rotate(0 66.5 14)"><text x="0" y="21" font-family="Virgil, Segoe UI Emoji" font-size="20px" fill="#000000" text-anchor="start" style="white-space: pre;" direction="ltr">Loading状态器</text></g><g stroke-linecap="round" transform="translate(37 111) rotate(0 85.5 19)"><path d="M9.5 0 M9.5 0 C64.01 -0.13, 118.41 1.43, 161.5 0 M9.5 0 C54.2 -0.48, 99.78 -0.91, 161.5 0 M161.5 0 C168.41 1.59, 172.13 5.07, 171 9.5 M161.5 0 C169.17 -0.33, 173 3.39, 171 9.5 M171 9.5 C172.14 17.18, 169.91 22.98, 171 28.5 M171 9.5 C171.26 15.44, 170.84 21.12, 171 28.5 M171 28.5 C172.21 34.38, 168.84 39.27, 161.5 38 M171 28.5 C170.54 34.06, 167.41 38.04, 161.5 38 M161.5 38 C126.4 37.94, 91.74 40.16, 9.5 38 M161.5 38 C120.2 37.3, 80.24 36.96, 9.5 38 M9.5 38 C3.18 39.09, -1.73 33.49, 0 28.5 M9.5 38 C4.68 38.33, -0.84 36.57, 0 28.5 M0 28.5 C-0.16 23.76, -1.35 20.24, 0 9.5 M0 28.5 C-0.72 24.58, 0.5 20.76, 0 9.5 M0 9.5 C1.65 4.72, 1.45 1.85, 9.5 0 M0 9.5 C1.21 3.38, 4.73 1.65, 9.5 0" stroke="#000000" stroke-width="1" fill="none"></path></g><g transform="translate(58 119) rotate(0 65.5 12.5)"><text x="0" y="18" font-family="Virgil, Segoe UI Emoji" font-size="20px" fill="#000000" text-anchor="start" style="white-space: pre;" direction="ltr">loading: false</text></g><g stroke-linecap="round" transform="translate(36.5 176) rotate(0 85.5 19)"><path d="M9.5 0 M9.5 0 C49.49 0.89, 90.4 -0.22, 161.5 0 M9.5 0 C52.92 0.23, 96.2 0.4, 161.5 0 M161.5 0 C166.12 1.85, 172.05 3.35, 171 9.5 M161.5 0 C169.4 1.65, 171.83 1.42, 171 9.5 M171 9.5 C172.99 12.97, 171.21 21.38, 171 28.5 M171 9.5 C170.29 14.73, 171.68 20.57, 171 28.5 M171 28.5 C170.75 33.22, 169.54 37.51, 161.5 38 M171 28.5 C172.92 33.26, 170.11 36.25, 161.5 38 M161.5 38 C103.73 37.14, 44.91 39.23, 9.5 38 M161.5 38 C126.12 39.22, 91.35 38.28, 9.5 38 M9.5 38 C1.39 39.95, 1.96 34.87, 0 28.5 M9.5 38 C1.58 38.38, 1.41 34.29, 0 28.5 M0 28.5 C-0.16 23.39, 0.08 15.09, 0 9.5 M0 28.5 C0.89 23.74, -0.01 18.21, 0 9.5 M0 9.5 C1.84 1.93, 3.09 -0.8, 9.5 0 M0 9.5 C1.04 3.79, 1.31 1.83, 9.5 0" stroke="#000000" stroke-width="1" fill="none"></path></g><g transform="translate(69 182.5) rotate(0 53 12.5)"><text x="53" y="18" font-family="Virgil, Segoe UI Emoji" font-size="20px" fill="#000000" text-anchor="middle" style="white-space: pre;" direction="ltr">setLoading</text></g><g stroke-linecap="round" transform="translate(35.5 251) rotate(0 85.5 19)"><path d="M9.5 0 M9.5 0 C56.11 0.21, 104.2 1.7, 161.5 0 M9.5 0 C54.56 -1.43, 100.47 -0.95, 161.5 0 M161.5 0 C168.37 -1.62, 172.59 4.98, 171 9.5 M161.5 0 C167.14 1.57, 169.11 4.12, 171 9.5 M171 9.5 C170.66 14.21, 169.63 20.71, 171 28.5 M171 9.5 C171.86 13.75, 171.15 16.91, 171 28.5 M171 28.5 C169.42 33.01, 168.74 37.35, 161.5 38 M171 28.5 C170.5 33.15, 169.87 36.67, 161.5 38 M161.5 38 C118.49 36.46, 74.52 36.24, 9.5 38 M161.5 38 C124.63 39.13, 85.69 39.79, 9.5 38 M9.5 38 C3.84 39.74, 0.38 35.21, 0 28.5 M9.5 38 C4.51 39, 1.75 34.26, 0 28.5 M0 28.5 C1.95 23.47, -1.42 13.51, 0 9.5 M0 28.5 C0.33 22.85, -0.26 17.5, 0 9.5 M0 9.5 C-0.13 1.39, 3.09 -1.46, 9.5 0 M0 9.5 C0.96 2.14, 3.56 -0.82, 9.5 0" stroke="#000000" stroke-width="1" fill="none"></path></g><g transform="translate(55.5 257.5) rotate(0 65.5 12.5)"><text x="65.5" y="18" font-family="Virgil, Segoe UI Emoji" font-size="20px" fill="#000000" text-anchor="middle" style="white-space: pre;" direction="ltr">toggleLoading</text></g><g stroke-linecap="round"><g transform="translate(244 166) rotate(0 63.454731198400225 0.4171667631389653)"><path d="M-1.1 -0.34 C20.24 0.08, 106.5 1.92, 128.01 2.4 M0.52 -1.57 C21.79 -1.5, 106.4 0.15, 127.59 0.49" stroke="#000000" stroke-width="1" fill="none"></path></g><g transform="translate(244 166) rotate(0 63.454731198400225 0.4171667631389653)"><path d="M98.65 11.93 C108.37 9.2, 117.08 6.41, 128.49 -0.06 M98.49 10.62 C109.75 7.36, 121.27 2.42, 127.18 -0.21" stroke="#000000" stroke-width="1" fill="none"></path></g><g transform="translate(244 166) rotate(0 63.454731198400225 0.4171667631389653)"><path d="M99.02 -8.59 C108.6 -5.2, 117.2 -1.87, 128.49 -0.06 M98.86 -9.9 C109.83 -5.08, 121.21 -1.93, 127.18 -0.21" stroke="#000000" stroke-width="1" fill="none"></path></g></g><mask></mask><g stroke-linecap="round" transform="translate(385 23) rotate(0 136.5 30)"><path d="M15 0 M15 0 C104.23 2.71, 191.18 1.02, 258 0 M15 0 C87.69 0.38, 159.28 1.13, 258 0 M258 0 C267.1 -1.19, 272.38 4.46, 273 15 M258 0 C268.66 1.82, 273.67 3.74, 273 15 M273 15 C273.85 26.63, 274.91 37.12, 273 45 M273 15 C273.56 25.62, 273.34 35.78, 273 45 M273 45 C274.61 56.48, 268.04 58.91, 258 60 M273 45 C270.85 55.21, 265.87 58.82, 258 60 M258 60 C192.64 59.92, 129.7 58.49, 15 60 M258 60 C208.89 60.88, 159.64 60.87, 15 60 M15 60 C3.5 58.9, -0.86 55.5, 0 45 M15 60 C3.64 61.3, 0.31 55.33, 0 45 M0 45 C-1.16 38.06, -1.14 29.24, 0 15 M0 45 C1.07 35.24, -0.62 25.36, 0 15 M0 15 C1.29 3.63, 6.92 -0.11, 15 0 M0 15 C-1.21 5.93, 4.68 0.67, 15 0" stroke="#000000" stroke-width="1" fill="none"></path></g><g transform="translate(411 42) rotate(0 105.5 14)"><text x="0" y="21" font-family="Virgil, Segoe UI Emoji" font-size="20px" fill="#000000" text-anchor="start" style="white-space: pre;" direction="ltr">按钮 :loading="loading"</text></g><g stroke-linecap="round"><g transform="translate(516.7793941316318 87) rotate(0 -0.12864177398978427 42.93283388244453)"><path d="M0.79 -0.23 C0.83 14.26, 0.33 72.67, 0.1 87.26 M-0.26 -1.39 C-0.38 12.68, -1.32 70.24, -0.97 85.27" stroke="#000000" stroke-width="1" fill="none"></path></g><g transform="translate(516.7793941316318 87) rotate(0 -0.12864177398978427 42.93283388244453)"><path d="M-11.64 56.69 C-7.8 63.56, -4.8 72.01, 0.16 85.21 M-11.92 57.05 C-7.99 65.88, -5.09 74.6, -1.23 85.72" stroke="#000000" stroke-width="1" fill="none"></path></g><g transform="translate(516.7793941316318 87) rotate(0 -0.12864177398978427 42.93283388244453)"><path d="M8.88 56.67 C6.84 63.68, 3.97 72.14, 0.16 85.21 M8.61 57.03 C5.96 66.07, 2.3 74.79, -1.23 85.72" stroke="#000000" stroke-width="1" fill="none"></path></g></g><mask></mask><g stroke-linecap="round" transform="translate(418 177) rotate(0 102 26)"><path d="M13 0 M13 0 C48.6 2.37, 84.58 0.12, 191 0 M13 0 C82.74 -1.26, 151.29 -0.46, 191 0 M191 0 C198.6 1.53, 204.47 4.06, 204 13 M191 0 C199.65 0.68, 205.38 4.77, 204 13 M204 13 C201.91 21.43, 203.34 34.19, 204 39 M204 13 C204.63 21.31, 203.33 30.87, 204 39 M204 39 C204.61 48.64, 198.76 50.39, 191 52 M204 39 C203.13 47.71, 198.4 52.4, 191 52 M191 52 C153.91 53.28, 120.19 50.39, 13 52 M191 52 C128.94 52.04, 65.69 51.37, 13 52 M13 52 C4.51 52.21, -1.67 46.65, 0 39 M13 52 C6.29 53.25, -1.86 48.87, 0 39 M0 39 C1.31 30.96, 1.87 27.66, 0 13 M0 39 C0.8 32.78, 0.28 26.41, 0 13 M0 13 C1.06 2.39, 3.37 0.64, 13 0 M0 13 C-1.08 4.18, 3.82 0.23, 13 0" stroke="#000000" stroke-width="1" fill="none"></path></g><g transform="translate(438.5 190.5) rotate(0 81.5 12.5)"><text x="81.5" y="18" font-family="Virgil, Segoe UI Emoji" font-size="20px" fill="#000000" text-anchor="middle" style="white-space: pre;" direction="ltr">setLoading(true)</text></g><g stroke-linecap="round"><g transform="translate(575 171) rotate(0 18.183023437890256 -35.33534956797956)"><path d="M0.27 -0.37 C6.45 -12.19, 31.24 -58.81, 37.41 -70.3 M-1.04 -1.61 C4.98 -13.3, 30.39 -57.31, 36.67 -68.92" stroke="#000000" stroke-width="1" fill="none"></path></g><g transform="translate(575 171) rotate(0 18.183023437890256 -35.33534956797956)"><path d="M31.22 -38.63 C32.79 -48.63, 36.07 -59.24, 38.43 -69.5 M31.19 -39.53 C33.62 -49.07, 34.97 -61.23, 35.79 -69.1" stroke="#000000" stroke-width="1" fill="none"></path></g><g transform="translate(575 171) rotate(0 18.183023437890256 -35.33534956797956)"><path d="M13.32 -48.67 C20.84 -55.39, 30.03 -62.7, 38.43 -69.5 M13.29 -49.56 C22.07 -55.43, 29.8 -64.02, 35.79 -69.1" stroke="#000000" stroke-width="1" fill="none"></path></g></g><mask></mask><g transform="translate(603 127) rotate(0 61.5 14)"><text x="0" y="21" font-family="Virgil, Segoe UI Emoji" font-size="20px" fill="#000000" text-anchor="start" style="white-space: pre;" direction="ltr">true，加载中</text></g><g stroke-linecap="round"><g transform="translate(520.2550911937674 249.72727272727275) rotate(0 0.48735418186345214 26.316843450414012)"><path d="M-0.88 1.14 C-0.77 9.43, 1.32 42.22, 1.86 50.4 M0.85 0.69 C0.7 9.12, 0.69 43.48, 0.85 51.94" stroke="#000000" stroke-width="1" fill="none"></path></g><g transform="translate(520.2550911937674 249.72727272727275) rotate(0 0.48735418186345214 26.316843450414012)"><path d="M-6.05 28.12 C-4.31 38.41, -1.12 48.64, 1.42 53.4 M-8.05 27.72 C-5.96 34.61, -3.12 39.42, 0.22 51.06" stroke="#000000" stroke-width="1" fill="none"></path></g><g transform="translate(520.2550911937674 249.72727272727275) rotate(0 0.48735418186345214 26.316843450414012)"><path d="M11.2 27.99 C6.08 38.21, 2.41 48.49, 1.42 53.4 M9.2 27.59 C7.46 34.35, 6.47 39.19, 0.22 51.06" stroke="#000000" stroke-width="1" fill="none"></path></g></g><mask></mask><g transform="translate(421 252) rotate(0 82.5 14)"><text x="0" y="21" font-family="Virgil, Segoe UI Emoji" font-size="20px" fill="#000000" text-anchor="start" style="white-space: pre;" direction="ltr">模拟请求。延时3s</text></g><g stroke-linecap="round" transform="translate(412 325) rotate(0 120 57)"><path d="M28.5 0 M28.5 0 C95.66 -0.19, 160.46 2.65, 211.5 0 M28.5 0 C93.32 0.22, 158.72 -0.02, 211.5 0 M211.5 0 C232.22 1.84, 239.12 7.6, 240 28.5 M211.5 0 C232.77 -2.15, 238.08 8.21, 240 28.5 M240 28.5 C240.18 46.76, 240.08 64.31, 240 85.5 M240 28.5 C239.33 47.27, 239.29 65.49, 240 85.5 M240 85.5 C241.33 102.61, 231.75 115.55, 211.5 114 M240 85.5 C239.73 104.35, 231.68 111.95, 211.5 114 M211.5 114 C142.07 113.25, 75.48 112.04, 28.5 114 M211.5 114 C152.85 114.72, 94.89 115.43, 28.5 114 M28.5 114 C10.79 115.58, 0.26 106, 0 85.5 M28.5 114 C10.46 112.83, -0.71 105.93, 0 85.5 M0 85.5 C-0.39 64.19, -0.66 47.51, 0 28.5 M0 85.5 C0.95 66.47, 0.11 45.42, 0 28.5 M0 28.5 C-1.07 9.61, 10.44 0.17, 28.5 0 M0 28.5 C-1.38 10.27, 10.93 0.86, 28.5 0" stroke="#000000" stroke-width="1" fill="none"></path></g><g transform="translate(439 348) rotate(0 95 37.5)"><text x="0" y="18" font-family="Virgil, Segoe UI Emoji" font-size="20px" fill="#000000" text-anchor="start" style="white-space: pre;" direction="ltr">setTimeout(() =&gt; {</text><text x="0" y="43" font-family="Virgil, Segoe UI Emoji" font-size="20px" fill="#000000" text-anchor="start" style="white-space: pre;" direction="ltr">  setLoading(false)</text><text x="0" y="68" font-family="Virgil, Segoe UI Emoji" font-size="20px" fill="#000000" text-anchor="start" style="white-space: pre;" direction="ltr">}, 3000)</text></g><g stroke-linecap="round"><g transform="translate(596 303) rotate(0 9.936011406234456 -27.18573748049789)"><path d="M1.06 0.1 C4.5 -8.69, 16.43 -43.74, 19.71 -52.57 M0.16 -0.89 C3.49 -10.07, 15.24 -46.03, 18.62 -54.47" stroke="#000000" stroke-width="1" fill="none"></path></g><g transform="translate(596 303) rotate(0 9.936011406234456 -27.18573748049789)"><path d="M18.94 -26.62 C19.41 -31.21, 18.82 -38.99, 19.07 -54.06 M18.76 -26.01 C19.07 -34.55, 17.67 -44.54, 18.4 -54.78" stroke="#000000" stroke-width="1" fill="none"></path></g><g transform="translate(596 303) rotate(0 9.936011406234456 -27.18573748049789)"><path d="M0.7 -33.15 C5.29 -36.42, 8.8 -42.74, 19.07 -54.06 M0.52 -32.53 C6.49 -39, 10.72 -46.98, 18.4 -54.78" stroke="#000000" stroke-width="1" fill="none"></path></g></g><mask></mask><g transform="translate(626 266) rotate(0 75.5 14)"><text x="0" y="21" font-family="Virgil, Segoe UI Emoji" font-size="20px" fill="#000000" text-anchor="start" style="white-space: pre;" direction="ltr">false，加载完成</text></g><g stroke-linecap="round"><g transform="translate(745 186) rotate(0 61.93473349635963 0.7733372528285258)"><path d="M1.14 1.16 C21.67 1.41, 102.96 1.51, 123.59 1.61 M0.28 0.72 C20.58 0.63, 101.7 0.06, 122.42 -0.07" stroke="#000000" stroke-width="1" fill="none"></path></g><g transform="translate(745 186) rotate(0 61.93473349635963 0.7733372528285258)"><path d="M96.23 9.69 C105.09 8.14, 114.74 1.71, 121.61 -0.9 M94.91 11.05 C103.57 7.37, 113.47 2.13, 122.88 -0.41" stroke="#000000" stroke-width="1" fill="none"></path></g><g transform="translate(745 186) rotate(0 61.93473349635963 0.7733372528285258)"><path d="M96.09 -10.83 C105.02 -5.53, 114.71 -5.09, 121.61 -0.9 M94.77 -9.47 C103.44 -6.07, 113.39 -4.22, 122.88 -0.41" stroke="#000000" stroke-width="1" fill="none"></path></g></g><mask></mask><g stroke-linecap="round" transform="translate(936 10) rotate(0 66 25.5)"><path d="M9.84 12.53 C9.84 12.53, 9.84 12.53, 9.84 12.53 M9.84 12.53 C9.84 12.53, 9.84 12.53, 9.84 12.53 M2.78 24.65 C7.95 21.16, 10.53 16.19, 16.09 11.32 M3.02 26.3 C9.25 20.31, 13.63 14.05, 18.44 10.83 M5.45 28.27 C10.35 23.79, 15.06 19.77, 25.53 7.78 M4.97 29.88 C11.93 22.27, 17.3 15.92, 24.07 8.03 M7.15 32.54 C15.17 24.46, 25.35 14.16, 30.8 3.43 M6.99 33.5 C16.39 24.07, 24.69 13.11, 33.15 4.48 M8.39 36.64 C18.33 29.94, 24.98 18.57, 39.35 4.49 M9.45 37.8 C16.21 28.92, 22.6 21.85, 37.71 4.21 M11.58 40.67 C22.77 27.39, 31.53 17.81, 45.09 2.9 M12.05 39.75 C23.13 28.48, 34.62 16.04, 43.8 5.41 M14.7 42.77 C24.94 33.67, 30.8 23.54, 50.14 6.05 M15.18 41.21 C25.36 32.26, 34.28 22.56, 48.77 3.48 M21.53 41.95 C28.82 30.53, 37.39 22.85, 53.05 1.83 M19.57 43.24 C30.44 29.85, 41.54 19.04, 55.1 3.56 M24.67 45.78 C37.16 31.07, 47.68 18.96, 60.46 1.04 M24.96 45.19 C35.53 32.55, 46.98 19, 61.54 2.39 M29.08 48.23 C41.06 34.18, 51.78 17.09, 68.06 2.77 M27.19 45.96 C41.44 30.33, 57.27 11.86, 65.71 3.13 M33.78 46.26 C43.35 34.86, 56.17 19.74, 71.53 1 M31.44 48.1 C46.09 32.48, 57.95 17.4, 70.57 3.35 M38.13 47.77 C46.7 35.58, 61.08 21.04, 77.47 3.74 M36.05 49.13 C45.01 38.38, 56.13 26.93, 76.9 3.66 M40.07 50.93 C52.76 36.43, 67.06 21.07, 81.75 4.89 M42.43 48.32 C57.51 31.98, 71.49 15.17, 81.26 2.99 M45.16 49.55 C55.58 38.26, 66.16 28.73, 85.77 1.9 M45.52 49.54 C57.71 36.86, 67.29 25.32, 85.75 3.67 M52.14 49.22 C66.21 33.08, 82.64 15.81, 92.08 2.1 M51.01 50.77 C60.38 39.34, 70.87 28.13, 91.24 3.25 M55.26 51.22 C73.11 34.79, 86.62 14.14, 96.02 5.12 M55.21 51.49 C72.36 32.63, 88.77 14.31, 96.57 4.25 M62.51 51.78 C77.88 34.2, 93.77 14.73, 102.02 4.48 M60.82 51.41 C69.72 41.35, 78.1 31.65, 102.35 3.32 M66.7 53.86 C74.12 44.22, 81.05 33.55, 107.24 6.47 M65.59 53.59 C76.72 39.04, 86.26 26.75, 106.25 5.5 M70.9 50.65 C81.08 38.15, 90.69 29.57, 109.08 7.56 M71.35 51.46 C82.97 36.44, 98 21.73, 110.06 6.99 M77.62 51.51 C85.57 41.26, 95.37 29.01, 114.96 7.45 M76.67 52.18 C86.84 39.94, 96.06 29.29, 112.92 9.8 M80.92 51.07 C94.04 35.98, 106.41 23.92, 117.19 12.29 M82.63 51.16 C95.56 36.23, 109.14 19.73, 117.92 10.25 M88.8 49.12 C101.58 36.59, 113.53 19.7, 120.61 12.48 M86.71 51.42 C97.33 40.66, 108.06 27.74, 121.19 12.32 M94.77 48.97 C103.51 39.38, 116.28 23.84, 123.57 16.08 M93.97 51.34 C101.22 40.33, 109.53 32.34, 124.47 14.43 M97.53 51.85 C111.2 36.56, 122.41 24.74, 128.87 15.94 M98.2 50.51 C110.33 38.44, 120.33 26.62, 127.62 18.02 M105.86 49.73 C111.97 39.81, 122.03 31.19, 131.38 19.54 M106.49 48.03 C113.67 39.64, 121.97 28.97, 129.79 20.86 M114.97 47.52 C120.02 36.46, 125.9 30.18, 132.99 24.64 M113.08 46.12 C117.76 40.5, 123.78 34.51, 131.97 26.12 M7.37 37.25 C7.37 37.25, 7.37 37.25, 7.37 37.25 M7.37 37.25 C7.37 37.25, 7.37 37.25, 7.37 37.25 M19.22 42.9 C11.96 36.18, 6.9 30.95, 1.28 30.32 M19.96 42.76 C14.62 37.98, 9.05 34.05, 3.75 28.63 M29.8 44.55 C24.97 40.28, 16.34 37.81, 3.49 21.25 M29.43 45.79 C24.38 41.14, 18.83 37.04, 3.05 21.54 M36.85 46.18 C22.48 37.08, 11.2 25.29, 6.37 20.06 M37.53 47.17 C28.62 40.04, 19.02 33.12, 5.41 18.74 M44.47 48.12 C34.34 39, 26.79 31.08, 8.28 16.25 M44.43 48.97 C34.95 39.68, 25.04 32.17, 7.65 16.25 M51.1 48.29 C42.1 38.96, 28.97 32.59, 10.11 12.86 M50.82 49.68 C39.07 38.58, 26.19 27.94, 9.31 13.41 M57.01 51.9 C45.45 38.77, 29.34 25.82, 11.2 9.62 M58.8 49.3 C43.76 36.69, 29.17 25.25, 12.08 9.37 M61.59 47.86 C45.91 35.38, 28.55 20.81, 18.39 6.56 M62.89 49.2 C51.37 38.11, 37.52 26.24, 16.47 8.25 M70.55 49.68 C53.36 31.53, 36.42 19.23, 21.2 6.52 M68.68 48.47 C57.65 38.23, 45.9 28.42, 20.51 7.01 M74.5 50 C60.9 38.3, 46.33 23.5, 24.67 6.05 M75.04 47.89 C63.89 39.5, 53.27 28.85, 26.17 5.82 M81.08 46.89 C68.44 36.37, 54.05 26.43, 28.5 1.93 M79.75 47.67 C67.68 37.57, 56.11 26.93, 30.05 3.99 M85.84 45.57 C74.17 36.11, 65.03 29.03, 36.71 2.71 M86.01 46.58 C71.95 35.75, 60.19 25.24, 34.61 2.97 M91.86 48.79 C76.46 32.18, 58.59 19.77, 41.67 4.58 M91.59 47.79 C78.72 37.05, 67.56 26.88, 41.8 3.67 M97.39 47.22 C78.78 29.8, 62.49 15.1, 45.09 2.31 M98.02 46.68 C85.98 36.98, 73.42 25.37, 47.52 2.8 M101.96 44.46 C83.57 29.61, 68.7 17.64, 52.05 2.34 M102.28 45.34 C88.84 35.57, 78.33 24.26, 53.31 1.42 M107.27 44.07 C86.7 27.45, 70.22 10.02, 58.7 1.1 M107.25 42.96 C88.97 28.81, 73.48 15.7, 57.54 2.73 M109.28 41.35 C97.38 31.22, 82.92 18.24, 63.07 -1.19 M111.37 41.09 C96.42 30.73, 84.32 17.5, 63.84 1.22 M116.65 39.62 C98.44 26.84, 84.07 13.97, 67.75 0.42 M114.61 41.36 C101.92 28.47, 88.18 16.62, 69.31 1.11 M120.29 39.36 C105.92 25.33, 87.68 14.45, 72.71 -3.92 M119.62 40.06 C108.99 30.98, 97.68 19.92, 72.9 -1.71 M122.29 37.17 C111.04 29.19, 98.45 17.16, 80.51 -0.65 M124.22 38.51 C107.43 23.84, 93.4 10.85, 78.2 -0.1 M126.24 35.56 C113.54 23.82, 101.03 15.14, 84.31 0.52 M125.25 34.31 C112.2 22.54, 98.57 10.72, 84.99 -0.92 M129.2 32.51 C117.47 19.38, 107.39 12.37, 92.09 -0.61 M128.15 30.35 C118.83 23.09, 109.79 14.45, 93.05 -0.72 M132.22 28.02 C123.77 21.45, 118.75 16.68, 100.22 2.42 M130.98 28.75 C122.57 20.49, 111.97 10.88, 101.28 2.74 M132.53 26.4 C130.55 20.73, 126.62 15.65, 115.64 7.79 M134.23 24.64 C127.32 19.97, 121.58 13.82, 113.43 7.05" stroke="#15aabf" stroke-width="0.5" fill="none"></path><path d="M69.83 0.43 C80.2 0.24, 92.05 1.51, 101.11 3.65 C110.17 5.78, 119.07 9.49, 124.18 13.23 C129.29 16.97, 132.3 21.58, 131.76 26.07 C131.21 30.55, 126.86 36.48, 120.88 40.13 C114.91 43.79, 105.7 46.3, 95.9 47.98 C86.1 49.66, 73.01 50.43, 62.09 50.2 C51.16 49.97, 39.49 48.8, 30.33 46.61 C21.18 44.42, 12.07 40.88, 7.14 37.04 C2.21 33.21, 0.29 27.69, 0.75 23.59 C1.2 19.5, 4.05 15.79, 9.89 12.47 C15.73 9.16, 24.9 5.62, 35.77 3.69 C46.64 1.75, 67.76 1.27, 75.1 0.86 C82.44 0.44, 80.01 0.75, 79.8 1.19 M79.95 1.93 C90.51 2.22, 104.74 2.81, 112.7 5.48 C120.66 8.16, 124.53 13.76, 127.7 17.98 C130.87 22.2, 134.1 26.61, 131.73 30.79 C129.36 34.97, 121.02 39.64, 113.48 43.08 C105.94 46.51, 97.11 50.05, 86.5 51.41 C75.89 52.77, 60.95 52.47, 49.84 51.25 C38.72 50.02, 27.88 47.26, 19.82 44.08 C11.75 40.9, 4.4 36.39, 1.45 32.15 C-1.51 27.9, -0.84 22.73, 2.08 18.62 C5 14.5, 11.65 10.53, 18.97 7.44 C26.3 4.35, 35.57 1.1, 46.06 0.08 C56.56 -0.94, 76.05 1.05, 81.95 1.31 C87.85 1.57, 81.9 1.24, 81.46 1.63" stroke="#000000" stroke-width="1" fill="none"></path></g><g transform="translate(976.5 23) rotate(0 25.5 12.5)"><text x="25.5" y="18" font-family="Virgil, Segoe UI Emoji" font-size="20px" fill="#000000" text-anchor="middle" style="white-space: pre;" direction="ltr">false</text></g><g stroke-linecap="round"><g transform="translate(1028.0571492508823 74.06601261361072) rotate(0 15.554508368161464 36.06800466077152)"><path d="M-0.76 0.73 C4.65 12.58, 26.7 58.92, 31.87 70.67 M1.03 0.07 C6.38 12.13, 25.9 59.96, 31.15 72.06" stroke="#000000" stroke-width="1" fill="none"></path></g><g transform="translate(1028.0571492508823 74.06601261361072) rotate(0 15.554508368161464 36.06800466077152)"><path d="M12 50.75 C15.32 53.69, 21.29 60.2, 30.08 72.35 M10.1 50.77 C17.18 56.52, 22.57 62.37, 31.73 72.77" stroke="#000000" stroke-width="1" fill="none"></path></g><g transform="translate(1028.0571492508823 74.06601261361072) rotate(0 15.554508368161464 36.06800466077152)"><path d="M30.92 42.81 C29.52 47.6, 30.79 56.08, 30.08 72.35 M29.02 42.82 C30.51 50.84, 30.35 59.03, 31.73 72.77" stroke="#000000" stroke-width="1" fill="none"></path></g></g><mask></mask><g stroke-linecap="round" transform="translate(977 156) rotate(0 111 30)"><path d="M3.99 3.47 C3.99 3.47, 3.99 3.47, 3.99 3.47 M3.99 3.47 C3.99 3.47, 3.99 3.47, 3.99 3.47 M1.11 12.89 C2.73 8.64, 7.94 6.3, 10.29 2.32 M1.11 12.89 C4.36 9.9, 6.84 6.05, 10.29 2.32 M1.5 18.53 C5.48 10.88, 11.59 5.02, 16.59 1.17 M1.5 18.53 C6.36 13.35, 11.75 5.83, 16.59 1.17 M1.24 24.93 C5.19 19.8, 8.72 13.2, 21.58 1.53 M1.24 24.93 C7.52 18.61, 13.33 10.83, 21.58 1.53 M1.63 30.57 C9.07 22.04, 20.47 9.4, 27.22 1.14 M1.63 30.57 C9.93 20.34, 19.36 10.92, 27.22 1.14 M1.37 36.97 C15.32 21.44, 23.85 6.73, 32.21 1.5 M1.37 36.97 C8.46 28.16, 14.89 21.31, 32.21 1.5 M1.11 43.37 C15.74 24.65, 29.09 11.06, 37.85 1.1 M1.11 43.37 C12.74 28.5, 24.84 15.21, 37.85 1.1 M1.51 49.01 C12.68 33.26, 24.3 22.07, 42.84 1.46 M1.51 49.01 C11.99 38.82, 19.47 28.06, 42.84 1.46 M3.21 53.14 C17.03 39.25, 28.92 23.64, 48.48 1.07 M3.21 53.14 C19.18 35.97, 34.04 17.57, 48.48 1.07 M4.92 57.28 C19.87 42.29, 35.61 25.39, 53.47 1.43 M4.92 57.28 C21.61 38.37, 37.74 19.36, 53.47 1.43 M8.59 59.15 C24.9 42.54, 40.76 24.65, 58.46 1.79 M8.59 59.15 C24.78 41.86, 40.53 23.92, 58.46 1.79 M13.58 59.51 C27.82 46.35, 36.97 30.81, 64.1 1.39 M13.58 59.51 C33.76 37.62, 52.5 13.17, 64.1 1.39 M19.22 59.11 C38.43 35.67, 58.11 16.96, 69.09 1.75 M19.22 59.11 C31.19 46.41, 40.35 34.44, 69.09 1.75 M24.21 59.47 C34.52 46.7, 46.04 34.53, 74.73 1.36 M24.21 59.47 C34.68 47.47, 45.99 34.05, 74.73 1.36 M29.85 59.08 C47.02 37.74, 65.35 20.99, 79.72 1.72 M29.85 59.08 C46.78 38.81, 63.17 19, 79.72 1.72 M34.84 59.44 C54.36 37.97, 74.1 16.33, 85.36 1.33 M34.84 59.44 C55.28 36.77, 74.01 15.66, 85.36 1.33 M40.49 59.04 C51.97 43.54, 64.04 30.5, 90.35 1.69 M40.49 59.04 C51.66 46.34, 63.79 31.78, 90.35 1.69 M45.47 59.4 C55.62 45.05, 66.96 35.31, 95.99 1.29 M45.47 59.4 C58.22 44.27, 72.72 30.27, 95.99 1.29 M51.12 59.01 C65.39 43.05, 81.11 26.61, 100.98 1.65 M51.12 59.01 C68.3 40.83, 84.15 22.14, 100.98 1.65 M56.1 59.37 C68.34 46.29, 76.19 35.85, 105.96 2.01 M56.1 59.37 C75.86 37.95, 96.28 14.28, 105.96 2.01 M61.09 59.73 C76.41 45.49, 89.34 28, 111.61 1.62 M61.09 59.73 C78.45 40.87, 94.73 20.38, 111.61 1.62 M66.73 59.33 C88.45 36.97, 106.86 15.61, 116.59 1.98 M66.73 59.33 C82.26 40.6, 96.69 24.27, 116.59 1.98 M71.72 59.69 C86.7 42.09, 102.12 24.6, 122.24 1.58 M71.72 59.69 C84.5 46.58, 96.76 32.2, 122.24 1.58 M77.36 59.3 C98.85 37.08, 116.42 14.14, 127.22 1.94 M77.36 59.3 C93.11 40.27, 107.01 22.97, 127.22 1.94 M82.35 59.66 C99.89 41, 117.86 17.81, 132.87 1.55 M82.35 59.66 C98.7 42.25, 113.1 25.46, 132.87 1.55 M87.99 59.27 C104.72 37, 122.17 20.14, 137.85 1.91 M87.99 59.27 C100.59 44.39, 114.88 29.49, 137.85 1.91 M92.98 59.63 C107.01 42.73, 122.6 25.51, 142.84 2.27 M92.98 59.63 C106.42 45.08, 120 28.74, 142.84 2.27 M98.62 59.23 C114.76 44.01, 128.62 28.58, 148.48 1.87 M98.62 59.23 C110.16 45.58, 123.15 30.91, 148.48 1.87 M103.61 59.59 C124.06 38.74, 140.59 16.27, 153.47 2.23 M103.61 59.59 C121.69 38.85, 139.93 17.87, 153.47 2.23 M108.6 59.95 C122.23 45.43, 134.54 28.12, 159.11 1.84 M108.6 59.95 C121.92 44.64, 135.34 28.54, 159.11 1.84 M114.24 59.56 C125.84 43.37, 140.89 28.45, 164.1 2.2 M114.24 59.56 C127.6 42.87, 142.83 27.87, 164.1 2.2 M119.23 59.92 C130.52 44.82, 143.96 33.64, 169.74 1.8 M119.23 59.92 C137.95 39.32, 156.43 17.44, 169.74 1.8 M124.87 59.52 C142.41 39.53, 164.5 14.43, 174.73 2.16 M124.87 59.52 C143.82 37.24, 164.2 14.43, 174.73 2.16 M129.86 59.88 C142.02 46.86, 153.99 34.37, 180.37 1.77 M129.86 59.88 C145.77 41.35, 163.09 22, 180.37 1.77 M135.5 59.49 C151.08 41.69, 164.41 27.63, 185.36 2.13 M135.5 59.49 C153.23 39.35, 171.75 16.93, 185.36 2.13 M140.49 59.85 C158.73 42.3, 174.64 23.89, 190.35 2.49 M140.49 59.85 C155.93 43.56, 170.72 25.18, 190.35 2.49 M146.13 59.45 C163.62 39.14, 180.52 22.03, 195.99 2.1 M146.13 59.45 C163.4 40.05, 178.74 19.8, 195.99 2.1 M151.12 59.81 C166.37 42.78, 181.71 25, 200.98 2.46 M151.12 59.81 C163.37 45.34, 177.6 29.63, 200.98 2.46 M156.1 60.17 C171.39 46.83, 183.22 31.11, 206.62 2.06 M156.1 60.17 C171.13 42.61, 186.77 23.6, 206.62 2.06 M161.75 59.78 C181.49 38.98, 202.88 14.94, 211.61 2.42 M161.75 59.78 C178.08 41.95, 192.28 23.38, 211.61 2.42 M166.73 60.14 C185.02 39.75, 199.73 22.62, 215.94 3.54 M166.73 60.14 C184.9 39.61, 202.96 18.02, 215.94 3.54 M172.38 59.74 C189.26 44.24, 201.5 26.72, 219.61 5.41 M172.38 59.74 C189.25 38.63, 207.69 19.04, 219.61 5.41 M177.36 60.1 C189.15 45.86, 202.39 30.84, 221.98 8.78 M177.36 60.1 C189.55 45.61, 204.4 29.37, 221.98 8.78 M183.01 59.71 C192.96 48.12, 201.6 35.22, 223.68 12.92 M183.01 59.71 C196.54 44.23, 210.15 29.94, 223.68 12.92 M187.99 60.07 C198.7 48.15, 211.85 34.86, 223.42 19.32 M187.99 60.07 C200.68 46.62, 210.97 33.93, 223.42 19.32 M193.64 59.68 C200.74 51.85, 207.09 45.08, 223.16 25.71 M193.64 59.68 C200.22 52.89, 205.97 45.76, 223.16 25.71 M198.62 60.04 C203.85 54.31, 208.81 48.23, 223.55 31.36 M198.62 60.04 C208.96 48.11, 217.62 37.7, 223.55 31.36 M203.61 60.4 C209.95 50.87, 217.08 41.14, 223.29 37.75 M203.61 60.4 C210.16 54.26, 215.77 46.38, 223.29 37.75 M208.6 60.76 C212.08 58.33, 217.45 50.77, 223.03 44.15 M208.6 60.76 C212.28 56.32, 217.82 52.13, 223.03 44.15 M3.95 56.42 C3.95 56.42, 3.95 56.42, 3.95 56.42 M3.95 56.42 C3.95 56.42, 3.95 56.42, 3.95 56.42 M10.35 56.69 C8.14 53.56, 4.45 52.29, 0.54 48.16 M10.35 56.69 C7.18 54.54, 4.36 52.18, 0.54 48.16 M16.75 56.95 C11.78 54.58, 5.78 47.24, 0.9 43.17 M16.75 56.95 C12.54 53.76, 9.11 49.76, 0.9 43.17 M22.39 56.55 C15.2 51.49, 8.73 43.39, 0.5 37.53 M22.39 56.55 C13.57 49.9, 5.34 41.79, 0.5 37.53 M28.79 56.81 C18.99 48.62, 10.42 40.16, 0.86 32.54 M28.79 56.81 C20.26 50.06, 12.81 42.91, 0.86 32.54 M35.19 57.08 C27.27 48.94, 19.11 42.05, 0.47 26.9 M35.19 57.08 C21.87 45.69, 10.23 35.8, 0.47 26.9 M40.83 56.68 C27.92 47.45, 17.77 34.11, 0.83 21.91 M40.83 56.68 C30.69 48.02, 20.96 39.68, 0.83 21.91 M47.23 56.94 C35.23 47.92, 20.82 37.3, 0.43 16.27 M47.23 56.94 C28.4 41.52, 10.93 25.87, 0.43 16.27 M53.62 57.2 C32.57 40.56, 14.58 24.48, 0.79 11.28 M53.62 57.2 C39.6 44.23, 24.85 31.88, 0.79 11.28 M59.27 56.81 C42.03 43.08, 25.51 26.48, 2.66 7.61 M59.27 56.81 C46.74 46.46, 34.58 35.31, 2.66 7.61 M65.66 57.07 C49.46 43.13, 30.81 26.66, 3.78 3.27 M65.66 57.07 C51.58 44.88, 34.94 32.12, 3.78 3.27 M72.06 57.33 C47.8 39.87, 27.14 19.54, 7.91 1.57 M72.06 57.33 C49.69 38.66, 27 18.91, 7.91 1.57 M77.71 56.94 C58.88 43.36, 40.21 24.43, 10.54 -1.45 M77.71 56.94 C60.09 43.59, 43.33 28.51, 10.54 -1.45 M84.1 57.2 C70.79 45.82, 55.49 32.13, 16.18 -1.85 M84.1 57.2 C62.92 38.47, 43.94 19.94, 16.18 -1.85 M90.5 57.46 C74 46.81, 61.15 32.36, 22.58 -1.58 M90.5 57.46 C64.33 35.19, 39.15 13.63, 22.58 -1.58 M96.14 57.07 C82.16 43.28, 68.4 30.93, 28.98 -1.32 M96.14 57.07 C73.95 36.85, 52.13 18.58, 28.98 -1.32 M102.54 57.33 C81.34 39.34, 60.87 19.26, 34.62 -1.72 M102.54 57.33 C85.78 43.28, 70.86 30.2, 34.62 -1.72 M108.19 56.93 C88.88 37.14, 64.28 22.46, 41.02 -1.46 M108.19 56.93 C86.41 37.36, 63.83 18.63, 41.02 -1.46 M114.58 57.19 C89.42 34.49, 62.07 12.01, 47.41 -1.19 M114.58 57.19 C96.34 42.53, 80.38 27.86, 47.41 -1.19 M120.98 57.46 C106.36 44.81, 92.85 34.42, 53.06 -1.59 M120.98 57.46 C102.56 39.8, 83.43 24.09, 53.06 -1.59 M126.62 57.06 C101.16 34.9, 74.26 11.72, 59.45 -1.33 M126.62 57.06 C110.63 42.96, 93.17 28.96, 59.45 -1.33 M133.02 57.32 C108.63 35.45, 80.79 11.31, 65.1 -1.72 M133.02 57.32 C115.64 41.81, 98.48 27.64, 65.1 -1.72 M139.42 57.58 C120.98 41.39, 106.2 28.04, 71.5 -1.46 M139.42 57.58 C113.72 36.27, 88.92 12.57, 71.5 -1.46 M145.06 57.19 C125.75 41.62, 110.05 27.3, 77.89 -1.2 M145.06 57.19 C119.42 34.59, 94.32 13.47, 77.89 -1.2 M151.46 57.45 C134.32 41.14, 115.77 23.34, 83.54 -1.59 M151.46 57.45 C124.21 35, 98.82 10.82, 83.54 -1.59 M157.86 57.71 C136.02 39.25, 114.25 19.96, 89.93 -1.33 M157.86 57.71 C139.64 40.72, 121.79 24.2, 89.93 -1.33 M163.5 57.32 C138.42 35.43, 112.34 11, 96.33 -1.07 M163.5 57.32 C146.65 43.14, 130.53 29.43, 96.33 -1.07 M169.9 57.58 C149.11 40.34, 132.27 27.17, 101.98 -1.47 M169.9 57.58 C152.61 44.88, 136.94 29.01, 101.98 -1.47 M176.3 57.84 C149.47 37.65, 126.09 13.32, 108.37 -1.2 M176.3 57.84 C160.64 44.86, 145.56 32.51, 108.37 -1.2 M181.94 57.45 C159.62 36.36, 136.07 17.77, 114.77 -0.94 M181.94 57.45 C164.71 42.47, 147.83 26.98, 114.77 -0.94 M188.34 57.71 C167.74 41.86, 148.54 20.72, 120.41 -1.34 M188.34 57.71 C172.92 44.48, 157.29 31.2, 120.41 -1.34 M193.98 57.31 C176.69 41.43, 162.63 25.99, 126.81 -1.08 M193.98 57.31 C168.61 36.85, 144.29 15.34, 126.81 -1.08 M200.38 57.57 C177.12 37.67, 155.02 16.15, 133.21 -0.81 M200.38 57.57 C178.83 38.42, 158.13 20.76, 133.21 -0.81 M208.29 59.15 C188.59 40.75, 167.55 21.72, 138.85 -1.21 M208.29 59.15 C187.91 40.58, 165.54 22.19, 138.85 -1.21 M212.42 57.44 C193.58 39.58, 168.76 20.34, 145.25 -0.95 M212.42 57.44 C189.19 36.59, 165.51 17.63, 145.25 -0.95 M217.31 56.39 C194.81 34.57, 171.41 15.44, 151.65 -0.69 M217.31 56.39 C199.01 40.33, 181.41 25.37, 151.65 -0.69 M219.93 53.37 C200.59 35.84, 182.18 19.7, 157.29 -1.08 M219.93 53.37 C197.67 35.42, 176.77 17.11, 157.29 -1.08 M222.56 50.35 C204.2 37.22, 188.39 20.23, 163.69 -0.82 M222.56 50.35 C201.59 30.78, 179.59 12.56, 163.69 -0.82 M222.16 44.71 C208.32 34.43, 195.06 20.07, 169.33 -1.21 M222.16 44.71 C207.38 32.7, 192.94 20.21, 169.33 -1.21 M222.52 39.72 C207.42 25.29, 190.3 14.13, 175.73 -0.95 M222.52 39.72 C205.01 25.22, 190.14 11.94, 175.73 -0.95 M222.88 34.74 C212.18 27.58, 204.96 20.82, 182.13 -0.69 M222.88 34.74 C207.53 22.02, 192.78 8.57, 182.13 -0.69 M222.49 29.09 C214.19 20.38, 204.01 13.34, 187.77 -1.09 M222.49 29.09 C212.67 21.2, 203.49 13.19, 187.77 -1.09 M222.85 24.11 C214.09 17.51, 205.89 9.29, 194.17 -0.82 M222.85 24.11 C213.66 15.86, 203.52 8.13, 194.17 -0.82 M223.21 19.12 C216.75 13.25, 212.56 10.96, 200.57 -0.56 M223.21 19.12 C218.36 14.49, 213.17 10.77, 200.57 -0.56 M222.81 13.48 C216.23 7.19, 213.43 5.35, 206.21 -0.96 M222.81 13.48 C216.56 7.83, 211.38 3.95, 206.21 -0.96 M223.93 9.15 C220.49 5.78, 219.84 5.5, 214.12 0.62 M223.93 9.15 C221.37 6.59, 218.7 4.3, 214.12 0.62" stroke="#82c91e" stroke-width="0.5" fill="none"></path><path d="M15 0 M15 0 C55.13 -1.51, 97.38 0.24, 207 0 M15 0 C70.86 -1.8, 125.51 -1.57, 207 0 M207 0 C217.77 -0.41, 221.02 3.06, 222 15 M207 0 C216.63 -1.39, 224.05 7.26, 222 15 M222 15 C223.4 23.63, 223.31 30.21, 222 45 M222 15 C223.12 26.2, 223.01 35.37, 222 45 M222 45 C223.92 54.91, 217.36 61.37, 207 60 M222 45 C222.01 54.17, 215.3 59.45, 207 60 M207 60 C136.74 56.79, 66.09 58.5, 15 60 M207 60 C145.09 59.54, 82.38 60.55, 15 60 M15 60 C3.19 58.15, 1.25 55.26, 0 45 M15 60 C6.93 61.24, -0.13 52.76, 0 45 M0 45 C-0.82 36.67, -1.81 27.07, 0 15 M0 45 C0.69 35.85, 0.19 26.02, 0 15 M0 15 C-1.77 6.61, 5.28 1.89, 15 0 M0 15 C-1.6 4.8, 5.58 -1.94, 15 0" stroke="#000000" stroke-width="1" fill="none"></path></g><g transform="translate(994 173.5) rotate(0 94 12.5)"><text x="94" y="18" font-family="Virgil, Segoe UI Emoji" font-size="20px" fill="#000000" text-anchor="middle" style="white-space: pre;" direction="ltr">set: loading = true</text></g><g stroke-linecap="round"><g transform="translate(1149.076425991347 146) rotate(0 21.80134386416364 -37.67155347484203)"><path d="M0.64 -0.91 C7.84 -13.36, 36.8 -62.47, 44.08 -74.92 M-0.48 1.22 C6.51 -11.53, 35.9 -64, 43.3 -76.57" stroke="#000000" stroke-width="1" fill="none"></path></g><g transform="translate(1149.076425991347 146) rotate(0 21.80134386416364 -37.67155347484203)"><path d="M36.69 -46.49 C41.67 -57.1, 42.46 -67.52, 44.21 -76.12 M38.18 -46.31 C39.26 -56.17, 42.24 -65.36, 44.22 -77.39" stroke="#000000" stroke-width="1" fill="none"></path></g><g transform="translate(1149.076425991347 146) rotate(0 21.80134386416364 -37.67155347484203)"><path d="M18.88 -56.67 C30.51 -63.57, 37.96 -70.18, 44.21 -76.12 M20.37 -56.5 C26.84 -63.19, 35.26 -69.27, 44.22 -77.39" stroke="#000000" stroke-width="1" fill="none"></path></g></g><mask></mask><g stroke-linecap="round" transform="translate(1157 14) rotate(0 56 22)"><path d="M2.23 17.84 C2.23 17.84, 2.23 17.84, 2.23 17.84 M2.23 17.84 C2.23 17.84, 2.23 17.84, 2.23 17.84 M4.08 24.26 C8.73 15.07, 13.43 9.53, 17.79 5.18 M3.08 23.25 C8.98 16.53, 14.78 9.93, 17.44 6.18 M3.22 30.5 C11.35 19.94, 18.26 9.02, 25.05 2.43 M3.78 29.42 C10.68 21.36, 18.77 11.79, 25.25 5.16 M5.85 33.55 C13.97 21.51, 23.56 11.14, 29 4.08 M6.39 30.88 C13.14 23.52, 21.57 14.64, 30.53 3.78 M9.12 34.8 C14.57 27.92, 24.5 20.04, 37.98 3.65 M10.59 33.46 C16.38 25.57, 22.22 17.95, 36.45 1.83 M14.08 36.67 C19.33 25.45, 28.76 18.99, 43.47 2.54 M12.45 35.41 C24.72 22.43, 37.78 9.6, 43.9 1.32 M16.56 37.71 C26.91 28.66, 35.37 15.83, 49.14 3.44 M16.94 37.88 C26.26 26.38, 36.87 15.31, 48.12 3.28 M22.18 39.77 C28.95 31.22, 38.05 21.39, 52.27 1.41 M20.5 39.57 C28.88 30.05, 36.82 22.05, 53.7 2.28 M25.98 42.33 C36.53 27.11, 48.35 13.88, 56.97 2.82 M24.21 40.51 C31.91 32.28, 39.48 23.87, 57.33 2.84 M28.68 44.16 C39.39 28.12, 49.87 15.34, 64.27 3.68 M29.63 43.09 C41.15 27.42, 52.87 13.34, 63.52 3.14 M35.03 43.17 C41.45 35.83, 50.16 24.83, 68.51 3.79 M34.67 43.45 C44.69 30.56, 55.43 16.58, 68.44 2.64 M37.37 42.82 C51.26 28.7, 63.43 12.54, 74.96 3.34 M38.79 43.22 C46.97 34.66, 54.28 26.45, 73.23 2.15 M43.98 45.71 C56.96 27.97, 69.03 11.73, 80.05 4.04 M42.83 44.62 C54.01 33.05, 62.54 21.63, 79.69 2.36 M48.64 45.7 C62.78 28.81, 74.69 12.67, 84.42 3.03 M48.2 44.01 C60.62 30.14, 70.44 17.22, 82.96 5.16 M54.3 42.83 C59.91 34.39, 69.72 26.26, 85.78 4.7 M52.08 44.21 C64.73 31.79, 73.5 21.55, 87.89 4.96 M60.03 45.91 C72.54 28.2, 82.14 13.17, 89.93 4.85 M57.92 44.53 C66.35 34.97, 75.68 24.31, 91.67 6.24 M66 45.89 C76.3 30.75, 88.79 16.13, 93.73 9.32 M63.99 43.66 C75.15 32.99, 85.37 21.3, 94.34 7.65 M71.05 44.01 C80.11 29.85, 92.78 18.91, 98.65 10.07 M70.57 43.14 C81.36 31.8, 90.94 18, 99.9 9.51 M75.69 42.9 C81.87 38.08, 86.64 29.72, 102.5 12.13 M76.43 43.98 C81.87 35.69, 89.09 27.33, 103.59 10.18 M82.39 40.24 C88.98 36.68, 94.42 26.61, 107.68 15.16 M82.68 41.71 C88.57 34.02, 94.91 27.01, 105.73 13.12 M90.5 39.83 C97.79 31.98, 102.81 23.52, 110.7 17.09 M89.37 38.93 C93.85 35.5, 98.71 30.7, 108.81 15.89 M97.95 36.27 C99.61 34.55, 105.24 28.79, 113.97 17.52 M96.6 37.4 C103.91 29.61, 109.08 23.4, 112.79 19.01 M3.28 29.77 C3.28 29.77, 3.28 29.77, 3.28 29.77 M3.28 29.77 C3.28 29.77, 3.28 29.77, 3.28 29.77 M18.68 39.49 C13.68 33.72, 12.53 34.2, 1.67 24.49 M18.4 36.93 C13.15 33.52, 5.97 26.19, 3.55 23.89 M24.62 35.59 C18.58 31.42, 15.35 29.76, 2.6 19.82 M23.79 36.37 C15.96 30.05, 8.46 24.15, 2.03 17.78 M31 39.66 C24.26 29.49, 13.18 22.09, 2.38 13.5 M30.27 37.21 C20.15 28.92, 10.8 21.65, 3.58 15.42 M39.84 37.09 C28.81 30.37, 16.04 20.38, 7.49 12.86 M37.21 39.38 C26.93 28.58, 17.11 20.38, 7.68 13.18 M45.72 38.03 C36.05 33.54, 26.56 26.01, 10.57 8.7 M45.44 40.54 C37.07 31.37, 28.56 25.65, 10.98 10.8 M53.88 42.41 C41.91 31.79, 30.67 18.66, 16.3 7.7 M52.94 40.6 C42.54 32.12, 31.77 22.54, 14.7 7.26 M59.33 42.43 C47.56 30.76, 41.86 22.84, 19.51 5.4 M59.5 41.58 C44.71 29.5, 30.36 15.93, 18.33 5.24 M63.51 40.76 C50.45 30.17, 37.6 16.15, 22.35 5.95 M64.94 41.29 C50.16 28.92, 36.02 16.18, 22.3 4.23 M70.4 38.4 C52.86 27.71, 38.65 10.33, 29.33 4.55 M70.77 40.6 C59.08 31.86, 48.87 22.59, 26.68 2.45 M76.38 39 C64.42 30.19, 52.44 21.7, 32.29 2.34 M75.65 39.19 C61.13 27.47, 47.9 15.5, 33.64 3.22 M83.37 40.55 C70.11 27.01, 52.47 15.32, 37.45 0.96 M82.06 40.72 C67.31 26.81, 52.08 14.36, 38.07 0.84 M86.91 39.17 C79.04 32.15, 69.51 21.78, 41.57 0.74 M85.98 38.04 C71.76 27.18, 58.77 13.63, 43.34 0.35 M89.39 35.36 C76.46 26.33, 64.67 13.59, 47.08 -0.78 M91.61 36.84 C78.12 26.29, 65.65 14.98, 45.96 -2.58 M97.07 35.11 C84.69 25.67, 72.54 14.98, 53.96 -3.28 M96.03 36.25 C81.1 22.73, 66.68 10.33, 53.02 -0.66 M99.52 35.61 C87.07 21.86, 75.12 11.03, 57.81 -1.1 M100.16 33.96 C86.53 23.5, 72.91 10.49, 59.87 -0.96 M102.94 33.64 C90.83 20.69, 73.39 7.76, 63.3 -0.36 M105.67 34.06 C91.84 22.73, 77.46 11.2, 65.02 -0.53 M105.07 31.29 C97.34 22.03, 92.22 17.3, 71.74 -0.52 M107.42 30.17 C94.74 18.29, 82.62 7.79, 71.44 -0.67 M107.84 26.21 C101.35 17.99, 88.84 11.39, 76.99 0.64 M109.68 27.15 C98.29 16.41, 87.15 7.43, 77.88 -0.32 M112.94 23.47 C103.77 16.34, 94.94 6.19, 88.07 4.08 M111.29 22.42 C104.55 18.8, 99.16 14.22, 87.12 2.35" stroke="#82c91e" stroke-width="0.5" fill="none"></path><path d="M76.92 0.86 C85.93 1.82, 95.33 5.91, 101.32 9.21 C107.3 12.51, 112.32 16.63, 112.82 20.65 C113.31 24.68, 109.5 29.95, 104.29 33.36 C99.08 36.77, 90.43 39.49, 81.55 41.13 C72.67 42.77, 60.97 43.44, 51.02 43.18 C41.08 42.91, 29.83 41.76, 21.9 39.54 C13.97 37.33, 6.68 33.55, 3.43 29.9 C0.18 26.25, 0.02 21.71, 2.41 17.63 C4.81 13.55, 10.7 8.26, 17.8 5.4 C24.9 2.54, 32.93 0.55, 44.99 0.45 C57.04 0.34, 81.15 3.38, 90.11 4.76 C99.08 6.14, 99.43 8.47, 98.77 8.73 M43.22 1.37 C52.63 0.02, 67.32 -0.25, 76.81 0.81 C86.3 1.87, 94.19 4.21, 100.16 7.72 C106.14 11.24, 111.61 17.64, 112.67 21.89 C113.72 26.13, 111.35 29.92, 106.5 33.18 C101.65 36.43, 92.53 39.74, 83.55 41.43 C74.57 43.12, 62.88 43.57, 52.61 43.3 C42.35 43.03, 30.22 42.31, 21.98 39.8 C13.74 37.29, 6.37 31.97, 3.17 28.25 C-0.04 24.52, 0.73 21.08, 2.77 17.43 C4.82 13.78, 8.33 8.99, 15.44 6.33 C22.55 3.68, 40.54 2.36, 45.44 1.49 C50.34 0.62, 44.96 0.82, 44.84 1.12" stroke="#000000" stroke-width="1" fill="none"></path></g><g transform="translate(1191.5 23.5) rotate(0 21.5 12.5)"><text x="21.5" y="18" font-family="Virgil, Segoe UI Emoji" font-size="20px" fill="#000000" text-anchor="middle" style="white-space: pre;" direction="ltr">true</text></g><g stroke-linecap="round"><g transform="translate(1061.4961723520673 229) rotate(0 -0.6153557817167439 37.84277400987688)"><path d="M0.41 0.15 C0.16 12.77, -0.47 63.8, -0.43 76.5 M-0.83 -0.82 C-1.37 11.37, -1.78 62.14, -1.6 74.64" stroke="#000000" stroke-width="1" fill="none"></path></g><g transform="translate(1061.4961723520673 229) rotate(0 -0.6153557817167439 37.84277400987688)"><path d="M-11.63 45.74 C-6.85 58.51, -3.06 66.75, -2.29 75.67 M-12.34 45.63 C-8.21 55.32, -6.54 61.9, -1.93 74.7" stroke="#000000" stroke-width="1" fill="none"></path></g><g transform="translate(1061.4961723520673 229) rotate(0 -0.6153557817167439 37.84277400987688)"><path d="M8.89 45.73 C5.66 58.58, 1.43 66.82, -2.29 75.67 M8.18 45.61 C6.34 55.41, 2.05 61.99, -1.93 74.7" stroke="#000000" stroke-width="1" fill="none"></path></g></g><mask></mask><g stroke-linecap="round" transform="translate(900 319) rotate(0 122.5 29.5)"><path d="M3.93 3.41 C3.93 3.41, 3.93 3.41, 3.93 3.41 M3.93 3.41 C3.93 3.41, 3.93 3.41, 3.93 3.41 M3.01 10.57 C4.1 9.65, 6.33 7.23, 10.23 2.26 M3.01 10.57 C6.04 7.9, 8.69 4.34, 10.23 2.26 M2.75 16.96 C5.83 12.16, 10.48 7.46, 16.52 1.11 M2.75 16.96 C5.39 13.73, 8.58 9.68, 16.52 1.11 M2.49 23.36 C8.12 17.26, 12.82 11.7, 21.51 1.47 M2.49 23.36 C9.56 15.1, 16.48 9.25, 21.51 1.47 M2.88 29 C10.66 17.84, 21.39 9.31, 27.15 1.08 M2.88 29 C9.38 20.3, 15.82 13.19, 27.15 1.08 M3.27 34.65 C11.46 27.23, 16.17 16.6, 32.14 1.44 M3.27 34.65 C12.49 25.69, 19.3 14.86, 32.14 1.44 M3.01 41.04 C10.77 34.7, 19.01 25.44, 37.78 1.05 M3.01 41.04 C16.03 26.59, 27.96 13.37, 37.78 1.05 M3.41 46.69 C19.06 31.67, 31.63 14.64, 42.77 1.41 M3.41 46.69 C12.87 35.11, 23.7 23.79, 42.77 1.41 M3.15 53.09 C21.07 32.94, 38.85 13.97, 47.76 1.77 M3.15 53.09 C16.47 38.01, 27.85 23.07, 47.76 1.77 M6.17 55.71 C22.76 38.51, 37.12 20.59, 53.4 1.37 M6.17 55.71 C24.84 34.57, 42.51 13.56, 53.4 1.37 M8.53 59.09 C27.3 37.78, 43.51 18.01, 58.39 1.73 M8.53 59.09 C20.48 45.45, 31.64 32.6, 58.39 1.73 M12.86 60.2 C23.83 48.46, 34.59 34.06, 64.03 1.34 M12.86 60.2 C26.59 42.45, 41.69 26.01, 64.03 1.34 M18.5 59.81 C34.28 42.23, 53.84 20.86, 69.02 1.7 M18.5 59.81 C30.85 47.3, 40.63 33.71, 69.02 1.7 M23.49 60.17 C39.89 42.75, 57.81 21.15, 74.66 1.3 M23.49 60.17 C39.31 41.68, 54.83 25.52, 74.66 1.3 M28.48 60.53 C42.7 43.74, 57.75 28.15, 79.65 1.66 M28.48 60.53 C46.89 39.24, 66.11 17.27, 79.65 1.66 M34.12 60.13 C45.29 44.47, 58.93 29.61, 85.29 1.27 M34.12 60.13 C51.02 41.28, 67.09 20.6, 85.29 1.27 M39.11 60.49 C59.08 39.9, 77.79 15.82, 90.28 1.63 M39.11 60.49 C53.08 45.24, 65.3 30, 90.28 1.63 M44.75 60.1 C59.66 41.64, 74.47 28.02, 95.92 1.23 M44.75 60.1 C59.55 44.2, 73.73 27.76, 95.92 1.23 M49.74 60.46 C67.63 40.69, 82.71 22.88, 100.91 1.59 M49.74 60.46 C67.99 39.74, 83.72 20.02, 100.91 1.59 M55.38 60.07 C72.93 41.23, 88.49 21.27, 106.55 1.2 M55.38 60.07 C68.28 45.26, 79.69 31.91, 106.55 1.2 M60.37 60.43 C69.71 50.71, 79.23 35.39, 111.54 1.56 M60.37 60.43 C80.18 38.91, 98.79 16.86, 111.54 1.56 M66.01 60.03 C83 36.48, 102.65 14.26, 117.18 1.16 M66.01 60.03 C78.45 45.01, 91.64 29.98, 117.18 1.16 M71 60.39 C86.37 43.53, 104.5 24.2, 122.17 1.52 M71 60.39 C90.12 38.46, 109.09 14.23, 122.17 1.52 M76.64 60 C92.3 39.81, 110.63 20.61, 127.81 1.13 M76.64 60 C94.98 36.65, 115.83 15.83, 127.81 1.13 M81.63 60.36 C93.83 43.83, 108.76 30.28, 132.8 1.49 M81.63 60.36 C94.96 45.18, 108.61 29.08, 132.8 1.49 M87.27 59.96 C104.07 40.46, 122.57 17.04, 137.79 1.85 M87.27 59.96 C107.31 37.15, 128.38 13.45, 137.79 1.85 M92.26 60.32 C106.8 43.63, 123.99 26.27, 143.43 1.46 M92.26 60.32 C112 37.59, 131 14.94, 143.43 1.46 M97.9 59.93 C110.94 43.69, 124 32.7, 148.42 1.82 M97.9 59.93 C115.28 40.39, 130.81 21.31, 148.42 1.82 M102.89 60.29 C121.31 37.52, 141.79 14.79, 154.06 1.42 M102.89 60.29 C112.27 49.39, 123.43 37.81, 154.06 1.42 M108.53 59.89 C125.54 42.65, 137.61 23.97, 159.05 1.78 M108.53 59.89 C125.07 42.27, 142.11 23.46, 159.05 1.78 M113.52 60.25 C126.94 43.56, 141.65 29.39, 164.69 1.39 M113.52 60.25 C126.01 45.62, 138.46 30.55, 164.69 1.39 M118.5 60.61 C135 45.03, 148.38 25.97, 169.68 1.75 M118.5 60.61 C135.08 40.15, 151.79 20.79, 169.68 1.75 M124.15 60.22 C137.84 45.21, 150.91 29.33, 175.32 1.35 M124.15 60.22 C143.42 38.85, 160.69 17.03, 175.32 1.35 M129.13 60.58 C140.65 43.74, 154.56 29.93, 180.31 1.71 M129.13 60.58 C143.19 43.62, 160.03 25.46, 180.31 1.71 M134.78 60.18 C151.99 41.26, 164.82 24.43, 185.95 1.32 M134.78 60.18 C156.05 36.83, 175.04 12.73, 185.95 1.32 M139.76 60.54 C154.47 41.55, 171.41 26, 190.94 1.68 M139.76 60.54 C154.36 42.66, 170.82 23.83, 190.94 1.68 M145.41 60.15 C159.12 44.18, 170.92 29.81, 196.58 1.28 M145.41 60.15 C163.85 40.62, 179.84 18.81, 196.58 1.28 M150.39 60.51 C163.17 46.62, 173.91 35.25, 201.57 1.64 M150.39 60.51 C163.1 47.27, 175.17 32.58, 201.57 1.64 M156.04 60.12 C175.81 38.67, 192.67 20.96, 207.21 1.25 M156.04 60.12 C168.49 46.6, 180.13 32.2, 207.21 1.25 M161.02 60.48 C170.4 47.9, 184.13 33.75, 212.2 1.61 M161.02 60.48 C180.22 38.49, 198.72 16.16, 212.2 1.61 M166.67 60.08 C185.95 35.67, 204.9 14.79, 217.84 1.21 M166.67 60.08 C177.35 46.42, 187.67 35.44, 217.84 1.21 M171.65 60.44 C183.98 43.24, 201.5 27.81, 222.83 1.57 M171.65 60.44 C187.54 41.43, 205.29 20.72, 222.83 1.57 M177.3 60.05 C194.49 39.43, 214.08 17.69, 227.81 1.93 M177.3 60.05 C189.43 45.03, 202.45 30.77, 227.81 1.93 M182.28 60.41 C204.41 36.57, 224.11 15.29, 234.11 0.78 M182.28 60.41 C199.96 41.3, 216.6 21.17, 234.11 0.78 M187.93 60.01 C200.45 46.1, 213.93 30.88, 237.79 2.65 M187.93 60.01 C201.58 44.98, 213.36 29.85, 237.79 2.65 M192.91 60.37 C212.63 39.88, 232.12 17.67, 242.12 3.77 M192.91 60.37 C210.75 38.56, 230.74 17.69, 242.12 3.77 M197.9 60.73 C213.45 44.12, 231.78 22.27, 243.83 7.9 M197.9 60.73 C215.47 41.06, 233.7 21.04, 243.83 7.9 M203.54 60.34 C212.98 47.42, 221.52 37.33, 246.84 10.53 M203.54 60.34 C213.47 48.41, 224.2 36.37, 246.84 10.53 M208.53 60.7 C224.38 43.3, 239.43 26.63, 246.58 16.92 M208.53 60.7 C219.15 49.68, 228.76 38.35, 246.58 16.92 M214.17 60.3 C226.01 47.62, 238.2 34.17, 246.98 22.57 M214.17 60.3 C222.07 51.23, 231.82 40.49, 246.98 22.57 M219.16 60.66 C225.6 53.8, 234.01 45.07, 247.37 28.21 M219.16 60.66 C224.21 54.39, 231.1 48.17, 247.37 28.21 M224.8 60.27 C231.73 50.63, 242.25 39.79, 247.11 34.61 M224.8 60.27 C232.3 51.57, 241.88 41.09, 247.11 34.61 M231.1 59.12 C235.42 52.14, 240.33 45.04, 247.51 40.25 M231.1 59.12 C233.99 55.58, 238.27 51.22, 247.51 40.25 M236.75 58.72 C239.28 55.31, 242.57 52.36, 245.93 48.16 M236.75 58.72 C239.25 55.44, 242.55 53.6, 245.93 48.16 M5.99 57.13 C5.99 57.13, 5.99 57.13, 5.99 57.13 M5.99 57.13 C5.99 57.13, 5.99 57.13, 5.99 57.13 M12.39 57.39 C9.4 54.03, 4.16 49.69, 2.58 48.86 M12.39 57.39 C9.13 54.83, 6.36 52.17, 2.58 48.86 M18.79 57.65 C13.7 53.59, 8.07 48.02, 2.18 43.22 M18.79 57.65 C13.51 52.38, 7.69 47.54, 2.18 43.22 M24.43 57.25 C19.67 52.47, 11.14 47.29, 2.54 38.23 M24.43 57.25 C19.82 53.34, 15.45 49.69, 2.54 38.23 M30.83 57.52 C22.81 49.35, 13.67 39.5, 2.15 32.59 M30.83 57.52 C23.25 49.38, 13.78 43.65, 2.15 32.59 M37.23 57.78 C24.03 46.73, 8.08 35.11, 1.75 26.94 M37.23 57.78 C24.53 45.78, 12.19 36.19, 1.75 26.94 M42.87 57.38 C28.53 46.44, 19.25 35.36, 2.11 21.96 M42.87 57.38 C33.63 49.41, 24.01 39.57, 2.11 21.96 M49.27 57.64 C32.92 44.37, 18.64 29.32, 1.72 16.31 M49.27 57.64 C35.34 45.95, 20.91 33.29, 1.72 16.31 M54.91 57.25 C37.31 42.92, 18.32 27.75, 2.84 11.98 M54.91 57.25 C34.55 40.68, 15.35 24.1, 2.84 11.98 M61.31 57.51 C46.08 46.71, 34.59 36.02, 2.44 6.34 M61.31 57.51 C46.78 44.33, 32.67 31.87, 2.44 6.34 M67.71 57.77 C47.16 41.25, 31.1 23.15, 4.31 2.66 M67.71 57.77 C42.82 35.97, 19.11 16.84, 4.31 2.66 M73.35 57.38 C55.27 41.51, 36.54 25.78, 8.44 0.96 M73.35 57.38 C47.64 35.14, 23.94 14.45, 8.44 0.96 M79.75 57.64 C65.2 42.02, 47.95 27.84, 13.33 -0.09 M79.75 57.64 C54.67 35.83, 29.97 13.35, 13.33 -0.09 M85.39 57.24 C63.34 37.36, 43.16 18.73, 16.71 -2.46 M85.39 57.24 C67.1 42.88, 50.73 28.02, 16.71 -2.46 M91.79 57.51 C65.19 36.44, 41.48 12.76, 23.11 -2.2 M91.79 57.51 C64.73 33.46, 36.49 11.51, 23.11 -2.2 M98.19 57.77 C77.87 40.28, 54.78 21.53, 28.75 -2.59 M98.19 57.77 C71.32 34.55, 44.78 10.94, 28.75 -2.59 M103.83 57.37 C83.62 41.42, 62.7 20.23, 35.15 -2.33 M103.83 57.37 C80.94 37.57, 59.35 17.97, 35.15 -2.33 M110.23 57.63 C95.71 46.2, 81.19 31.67, 41.55 -2.07 M110.23 57.63 C87.92 39.2, 68.27 21.75, 41.55 -2.07 M115.87 57.24 C89.07 33.82, 63.12 11.94, 47.19 -2.46 M115.87 57.24 C91.3 35.75, 67.74 15.43, 47.19 -2.46 M122.27 57.5 C96.06 35.2, 73.51 16.26, 53.59 -2.2 M122.27 57.5 C103.49 40.11, 83.67 21.47, 53.59 -2.2 M128.66 57.76 C102.78 35.58, 76.31 14.39, 59.23 -2.59 M128.66 57.76 C108.16 37.92, 86.93 19.62, 59.23 -2.59 M134.31 57.37 C119.4 42.9, 101.02 28.2, 65.63 -2.33 M134.31 57.37 C119.34 43.78, 105.24 31.57, 65.63 -2.33 M140.71 57.63 C116.98 38.62, 92.4 16.81, 72.03 -2.07 M140.71 57.63 C118.3 38.23, 95.45 17.77, 72.03 -2.07 M147.1 57.89 C125.7 39.66, 102.15 20.67, 77.67 -2.47 M147.1 57.89 C127.11 39.93, 106.12 22.71, 77.67 -2.47 M152.75 57.5 C124.13 35.61, 100.01 11.42, 84.07 -2.21 M152.75 57.5 C135.19 42.04, 118.24 27.28, 84.07 -2.21 M159.14 57.76 C140.92 41.84, 122.13 26.99, 89.71 -2.6 M159.14 57.76 C144.54 47.02, 132 33.07, 89.71 -2.6 M164.79 57.36 C139.61 34.44, 113.47 14.28, 96.11 -2.34 M164.79 57.36 C142.11 37.73, 119.11 17.84, 96.11 -2.34 M171.18 57.62 C154.13 44.42, 138.22 28.38, 102.51 -2.08 M171.18 57.62 C151.12 40.06, 129.14 21.26, 102.51 -2.08 M177.58 57.89 C158.53 39.55, 136.51 21.22, 108.15 -2.47 M177.58 57.89 C154.54 38.3, 130.46 17.51, 108.15 -2.47 M183.23 57.49 C162.5 39.66, 142.32 24.76, 114.55 -2.21 M183.23 57.49 C157.58 34.86, 130.72 12.83, 114.55 -2.21 M189.62 57.75 C161.75 35.86, 137.76 9.17, 120.94 -1.95 M189.62 57.75 C166.91 38.32, 144.56 19.18, 120.94 -1.95 M195.27 57.36 C175.66 39.95, 154.18 22.31, 126.59 -2.34 M195.27 57.36 C168.87 34.49, 141.35 11.28, 126.59 -2.34 M201.66 57.62 C174.09 34.54, 147.8 11.61, 132.99 -2.08 M201.66 57.62 C188.42 45.67, 174.26 32.03, 132.99 -2.08 M208.06 57.88 C189.74 40.17, 168.7 23.11, 138.63 -2.48 M208.06 57.88 C187.56 41.37, 169.3 23.43, 138.63 -2.48 M213.71 57.49 C198.46 44.45, 178.42 28.3, 145.03 -2.21 M213.71 57.49 C187.82 34.54, 161.15 12.84, 145.03 -2.21 M220.1 57.75 C203.99 43.07, 185.79 31.45, 151.42 -1.95 M220.1 57.75 C196.09 35.65, 170.67 13.04, 151.42 -1.95 M225.75 57.35 C209.66 41.51, 189.56 25.59, 157.07 -2.35 M225.75 57.35 C203.37 37.2, 180.43 18.33, 157.07 -2.35 M231.39 56.96 C211.14 39.26, 186.9 16.4, 163.47 -2.09 M231.39 56.96 C209.36 39.49, 188.68 19.06, 163.47 -2.09 M237.79 57.22 C215.22 37.6, 193.25 17.42, 169.11 -2.48 M237.79 57.22 C224.07 46.04, 210.4 31.84, 169.11 -2.48 M241.17 54.86 C217.65 33.78, 196.61 15.77, 175.51 -2.22 M241.17 54.86 C227.44 41.74, 213.27 30.06, 175.51 -2.22 M243.04 51.18 C222.95 35.67, 207.95 18.36, 181.9 -1.96 M243.04 51.18 C227.09 38.58, 213.06 25.75, 181.9 -1.96 M244.9 47.51 C225.95 31.53, 207.72 13.77, 187.55 -2.35 M244.9 47.51 C227.06 31.6, 208 17.2, 187.55 -2.35 M244.51 41.86 C223.16 24.41, 205.33 6.98, 193.94 -2.09 M244.51 41.86 C226.73 26.97, 207.68 10.53, 193.94 -2.09 M244.87 36.88 C232.71 26.96, 221.85 18.18, 199.59 -2.49 M244.87 36.88 C234.98 27.91, 224.33 18.35, 199.59 -2.49 M244.48 31.23 C234.97 25.3, 226.51 18.77, 205.99 -2.22 M244.48 31.23 C230.78 19.95, 219.64 9.34, 205.99 -2.22 M244.84 26.25 C237.35 19.82, 228.96 9.31, 212.38 -1.96 M244.84 26.25 C233.05 16.3, 219.18 4.09, 212.38 -1.96 M244.44 20.6 C236.56 12.03, 224.73 4.38, 218.03 -2.36 M244.44 20.6 C238.44 15.73, 233.06 10.44, 218.03 -2.36 M244.05 14.96 C239.57 7.93, 231.27 3.11, 224.42 -2.1 M244.05 14.96 C238.1 9.11, 230.5 4.93, 224.42 -2.1 M244.41 9.97 C239.87 6.64, 235.98 2.26, 230.82 -1.83 M244.41 9.97 C241.21 8.11, 238.05 5.07, 230.82 -1.83" stroke="#15aabf" stroke-width="0.5" fill="none"></path><path d="M14.75 0 M14.75 0 C87.17 -3.13, 156.14 -2.37, 230.25 0 M14.75 0 C67.05 1.2, 120.59 0.6, 230.25 0 M230.25 0 C238.41 -1.61, 245.9 4.99, 245 14.75 M230.25 0 C240.36 1.98, 245.97 4.85, 245 14.75 M245 14.75 C243.02 26.23, 244.55 35.24, 245 44.25 M245 14.75 C244.93 21.59, 245.9 27.87, 245 44.25 M245 44.25 C245.08 52.12, 238.95 57.54, 230.25 59 M245 44.25 C245.83 52.17, 241.77 57.84, 230.25 59 M230.25 59 C176.42 60.54, 125.95 59.55, 14.75 59 M230.25 59 C185.74 59.14, 141.35 58.55, 14.75 59 M14.75 59 C5.19 60.07, -0.8 55.52, 0 44.25 M14.75 59 C6.17 59.28, 1.44 56.26, 0 44.25 M0 44.25 C0.95 31.93, -0.16 23.29, 0 14.75 M0 44.25 C0.57 37.78, 0.34 32.28, 0 14.75 M0 14.75 C-0.28 3.18, 4.31 0.64, 14.75 0 M0 14.75 C1.07 6.12, 4.05 0.68, 14.75 0" stroke="#000000" stroke-width="1" fill="none"></path></g><g transform="translate(935 339) rotate(0 98 12.5)"><text x="0" y="18" font-family="Virgil, Segoe UI Emoji" font-size="20px" fill="#000000" text-anchor="start" style="white-space: pre;" direction="ltr">set: laoding = false</text></g><g transform="translate(778 153) rotate(0 20.5 14)"><text x="0" y="21" font-family="Virgil, Segoe UI Emoji" font-size="20px" fill="#000000" text-anchor="start" style="white-space: pre;" direction="ltr">解析</text></g><g stroke-linecap="round"><g transform="translate(902 321) rotate(0 35.38080662384823 -130.49403845551606)"><path d="M-0.37 -0.5 C11.07 -43.79, 57.27 -215.43, 68.75 -258.54 M1.64 -1.82 C13.46 -44.98, 59.58 -217.79, 71.13 -260.48" stroke="#000000" stroke-width="1" fill="none"></path></g><g transform="translate(902 321) rotate(0 35.38080662384823 -130.49403845551606)"><path d="M72.89 -231.63 C73.19 -241.3, 71.35 -248.44, 71.67 -260.95 M73.76 -230.14 C72.94 -240.76, 72.55 -249.29, 71.47 -260.91" stroke="#000000" stroke-width="1" fill="none"></path></g><g transform="translate(902 321) rotate(0 35.38080662384823 -130.49403845551606)"><path d="M53.07 -236.96 C59.57 -244.91, 63.87 -250.41, 71.67 -260.95 M53.95 -235.46 C59.59 -244.52, 65.6 -251.33, 71.47 -260.91" stroke="#000000" stroke-width="1" fill="none"></path></g></g><mask></mask><g stroke-linecap="round"><g transform="translate(1143 35) rotate(0 -29.052451256662607 -0.09325267782750757)"><path d="M0.81 -1.04 C-9.06 -1.11, -49.23 -1.38, -58.92 -1.11 M-0.22 1.03 C-9.76 1.13, -47.1 0.27, -56.69 -0.16" stroke="#000000" stroke-width="1" fill="none"></path></g><g transform="translate(1143 35) rotate(0 -29.052451256662607 -0.09325267782750757)"><path d="M-30.86 -10.74 C-40.08 -4.91, -46.37 -4.05, -56.14 -0.97 M-29.93 -10.08 C-38.09 -6.39, -45.51 -4.54, -56.37 0.26" stroke="#000000" stroke-width="1" fill="none"></path></g><g transform="translate(1143 35) rotate(0 -29.052451256662607 -0.09325267782750757)"><path d="M-31.49 9.09 C-40.39 8.4, -46.47 2.76, -56.14 -0.97 M-30.56 9.75 C-38.42 7.7, -45.66 3.81, -56.37 0.26" stroke="#000000" stroke-width="1" fill="none"></path></g></g><mask></mask></svg>